<svg width="1444" height="1124" xmlns="http://www.w3.org/2000/svg" xmlns:xlink="http://www.w3.org/1999/xlink" overflow="hidden"><defs><clipPath id="clip0"><rect x="0" y="0" width="1444" height="1124"/></clipPath></defs><g clip-path="url(#clip0)"><path d="M113 320 539.84 591.801" stroke="#000000" stroke-width="2.29167" stroke-miterlimit="8" fill="none" fill-rule="evenodd"/><path d="M560 611 831.211 803.499" stroke="#000000" stroke-width="2.29167" stroke-miterlimit="8" fill="none" fill-rule="evenodd"/><path d="M0 0 41.6019 51.211" stroke="#000000" stroke-width="2.29167" stroke-miterlimit="8" fill="none" fill-rule="evenodd" transform="matrix(1 0 0 -1 550 587.211)"/><path d="M0 0 17.5394 47.3152" stroke="#000000" stroke-width="2.29167" stroke-miterlimit="8" fill="none" fill-rule="evenodd" transform="matrix(1 0 0 -1 605 521.315)"/><path d="M622.126 457.188 519 220" stroke="#000000" stroke-width="2.29167" stroke-miterlimit="8" fill="none" fill-rule="evenodd"/><path d="M505.437 213.562 337 162" stroke="#000000" stroke-width="2.29167" stroke-miterlimit="8" fill="none" fill-rule="evenodd"/><path d="M849.651 681.3 550 602" stroke="#000000" stroke-width="2.29167" stroke-miterlimit="8" fill="none" fill-rule="evenodd"/><path d="M0 0 330 336.523" stroke="#000000" stroke-width="2.29167" stroke-miterlimit="8" fill="none" fill-rule="evenodd" transform="matrix(-1 0 0 1 1199 344)"/><path d="M0 0 34.0228 110.352" stroke="#000000" stroke-width="2.29167" stroke-miterlimit="8" fill="none" fill-rule="evenodd" transform="matrix(-1 0 0 1 859.023 677)"/><path d="M1199 354 1384.98 357.438" stroke="#000000" stroke-width="2.29167" stroke-miterlimit="8" fill="none" fill-rule="evenodd"/><path d="M1186.31 340.5 1176 313" stroke="#000000" stroke-width="2.29167" stroke-miterlimit="8" fill="none" fill-rule="evenodd"/><path d="M0 0 13.7496 55" stroke="#000000" stroke-width="2.29167" stroke-miterlimit="8" fill="none" fill-rule="evenodd" transform="matrix(-1 0 0 1 1185.75 241)"/><path d="M1090.16 866.102 832 797" stroke="#000000" stroke-width="2.29167" stroke-miterlimit="8" fill="none" fill-rule="evenodd"/><path d="M821 808 831.084 869.998" stroke="#000000" stroke-width="2.29167" stroke-miterlimit="8" fill="none" fill-rule="evenodd"/><path d="M0 0 64.7232 123.283" stroke="#000000" stroke-width="2.29167" stroke-miterlimit="8" fill="none" fill-rule="evenodd" transform="matrix(-1 0 0 1 827.723 890)"/><path d="M0 0 106.8 28.3189" stroke="#000000" stroke-width="2.29167" stroke-miterlimit="8" fill="none" fill-rule="evenodd" transform="matrix(-1 0 0 1 759.8 1006)"/><path d="M536 601C536 593.268 542.268 587 550 587 557.732 587 564 593.268 564 601 564 608.732 557.732 615 550 615 542.268 615 536 608.732 536 601Z" fill="#800000" fill-rule="evenodd"/><path d="M845 690.5C845 683.044 851.268 677 859 677 866.732 677 873 683.044 873 690.5 873 697.956 866.732 704 859 704 851.268 704 845 697.956 845 690.5Z" fill="#800000" fill-rule="evenodd"/><path d="M1175 234C1175 226.268 1181.27 220 1189 220 1196.73 220 1203 226.268 1203 234 1203 241.732 1196.73 248 1189 248 1181.27 248 1175 241.732 1175 234Z" fill="#800000" fill-rule="evenodd"/><path d="M584 529C584 521.268 590.268 515 598 515 605.732 515 612 521.268 612 529 612 536.732 605.732 543 598 543 590.268 543 584 536.732 584 529Z" fill="#800000" fill-rule="evenodd"/><path d="M608 467C608 459.268 614.268 453 622 453 629.732 453 636 459.268 636 467 636 474.732 629.732 481 622 481 614.268 481 608 474.732 608 467Z" fill="#800000" fill-rule="evenodd"/><path d="M502 219.5C502 212.044 508.044 206 515.5 206 522.956 206 529 212.044 529 219.5 529 226.956 522.956 233 515.5 233 508.044 233 502 226.956 502 219.5Z" fill="#800000" fill-rule="evenodd"/><path d="M323 161C323 153.268 329.044 147 336.5 147 343.956 147 350 153.268 350 161 350 168.732 343.956 175 336.5 175 329.044 175 323 168.732 323 161Z" fill="#800000" fill-rule="evenodd"/><path d="M103 323C103 315.268 109.044 309 116.5 309 123.956 309 130 315.268 130 323 130 330.732 123.956 337 116.5 337 109.044 337 103 330.732 103 323Z" fill="#800000" fill-rule="evenodd"/><path d="M807 793.5C807 786.044 813.268 780 821 780 828.732 780 835 786.044 835 793.5 835 800.956 828.732 807 821 807 813.268 807 807 800.956 807 793.5Z" fill="#800000" fill-rule="evenodd"/><path d="M636 1041C636 1033.27 642.044 1027 649.5 1027 656.956 1027 663 1033.27 663 1041 663 1048.73 656.956 1055 649.5 1055 642.044 1055 636 1048.73 636 1041Z" fill="#800000" fill-rule="evenodd"/><path d="M1371 360.5C1371 353.044 1377.27 347 1385 347 1392.73 347 1399 353.044 1399 360.5 1399 367.956 1392.73 374 1385 374 1377.27 374 1371 367.956 1371 360.5Z" fill="#800000" fill-rule="evenodd"/><path d="M1175 354C1175 346.268 1181.27 340 1189 340 1196.73 340 1203 346.268 1203 354 1203 361.732 1196.73 368 1189 368 1181.27 368 1175 361.732 1175 354Z" fill="#800000" fill-rule="evenodd"/><path d="M1158 306C1158 298.268 1164.27 292 1172 292 1179.73 292 1186 298.268 1186 306 1186 313.732 1179.73 320 1172 320 1164.27 320 1158 313.732 1158 306Z" fill="#800000" fill-rule="evenodd"/><path d="M759 1003.5C759 996.044 765.268 990 773 990 780.732 990 787 996.044 787 1003.5 787 1010.96 780.732 1017 773 1017 765.268 1017 759 1010.96 759 1003.5Z" fill="#800000" fill-rule="evenodd"/><path d="M825 880C825 872.268 831.268 866 839 866 846.732 866 853 872.268 853 880 853 887.732 846.732 894 839 894 831.268 894 825 887.732 825 880Z" fill="#800000" fill-rule="evenodd"/><path d="M1079 866C1079 858.268 1085.27 852 1093 852 1100.73 852 1107 858.268 1107 866 1107 873.732 1100.73 880 1093 880 1085.27 880 1079 873.732 1079 866Z" fill="#800000" fill-rule="evenodd"/></g></svg>